# Blender v2.78 (sub 0) OBJ File: ''
# www.blender.org
o DomeFloor
mtllib test.mtl
v 2.770000 0.000000 0.000000
v 2.020000 0.433013 0.000000
v 2.020000 -0.433013 0.000000
v -1.385000 0.000000 -2.398890
v -1.010000 0.433013 -1.749371
v -1.010000 -0.433013 -1.749371
v -1.385000 0.000000 2.398890
v -1.010000 0.433013 1.749371
v -1.010000 -0.433013 1.749371
vn 0.3780 0.6547 -0.6547
vn -0.5000 0.0000 0.8660
vn 0.3780 -0.6547 -0.6547
vn -0.7559 0.6547 0.0000
vn 1.0000 0.0000 0.0000
vn -0.7559 -0.6547 0.0000
vn 0.3780 0.6547 0.6547
vn -0.5000 0.0000 -0.8660
vn 0.3780 -0.6547 0.6547
usemtl None
s off
f 1//1 4//1 5//1 2//1
f 2//2 5//2 6//2 3//2
f 1//3 3//3 6//3 4//3
f 4//4 7//4 8//4 5//4
f 5//5 8//5 9//5 6//5
f 6//6 9//6 7//6 4//6
f 7//7 1//7 2//7 8//7
f 8//8 2//8 3//8 9//8
f 9//9 3//9 1//9 7//9
o DomeMobile
v 0.000000 2.028014 -1.000000
v 0.195090 2.028014 -0.980785
v 0.382683 2.028014 -0.923880
v 0.555570 2.028014 -0.831470
v 0.707107 2.028014 -0.707107
v 0.831470 2.028014 -0.555570
v 0.923880 2.028014 -0.382683
v 0.980785 2.028014 -0.195090
v 1.000000 2.028014 -0.000000
v 0.000000 4.028014 0.000000
v 0.980785 2.028014 0.195090
v 0.923880 2.028014 0.382683
v 0.831470 2.028014 0.555570
v 0.707107 2.028014 0.707107
v 0.555570 2.028014 0.831470
v 0.382683 2.028014 0.923880
v 0.195090 2.028014 0.980785
v -0.000000 2.028014 1.000000
v -0.195091 2.028014 0.980785
v -0.382684 2.028014 0.923879
v -0.555571 2.028014 0.831469
v -0.707107 2.028014 0.707106
v -0.831470 2.028014 0.555570
v -0.923880 2.028014 0.382683
v -0.980785 2.028014 0.195089
v -1.000000 2.028014 -0.000001
v -0.980785 2.028014 -0.195091
v -0.923879 2.028014 -0.382684
v -0.831469 2.028014 -0.555571
v -0.707106 2.028014 -0.707108
v -0.555569 2.028014 -0.831470
v -0.382682 2.028014 -0.923880
v -0.195089 2.028014 -0.980786
v 1.000000 -0.053694 -1.000000
v 1.000000 -0.053694 1.000000
v -1.000000 -0.053694 1.000000
v -1.000000 -0.053694 -1.000000
v 1.000000 1.946306 -0.999999
v 0.999999 1.946306 1.000001
v -1.000000 1.946306 1.000000
v -1.000000 1.946306 -1.000000
vn 0.0878 0.4455 -0.8910
vn 0.2599 0.4455 -0.8567
vn 0.4220 0.4455 -0.7896
vn 0.5680 0.4455 -0.6921
vn 0.6921 0.4455 -0.5680
vn 0.7896 0.4455 -0.4220
vn 0.8567 0.4455 -0.2599
vn 0.8910 0.4455 -0.0878
vn 0.8910 0.4455 0.0878
vn 0.8567 0.4455 0.2599
vn 0.7896 0.4455 0.4220
vn 0.6921 0.4455 0.5680
vn 0.5680 0.4455 0.6921
vn 0.4220 0.4455 0.7896
vn 0.2599 0.4455 0.8567
vn 0.0878 0.4455 0.8910
vn -0.0878 0.4455 0.8910
vn -0.2599 0.4455 0.8567
vn -0.4220 0.4455 0.7896
vn -0.5680 0.4455 0.6921
vn -0.6921 0.4455 0.5680
vn -0.7896 0.4455 0.4220
vn -0.8567 0.4455 0.2599
vn -0.8910 0.4455 0.0878
vn -0.8910 0.4455 -0.0878
vn -0.8567 0.4455 -0.2599
vn -0.7896 0.4455 -0.4220
vn -0.6921 0.4455 -0.5680
vn -0.5680 0.4455 -0.6921
vn -0.4220 0.4455 -0.7896
vn -0.2599 0.4455 -0.8567
vn -0.0878 0.4455 -0.8910
vn 0.0000 -1.0000 -0.0000
vn 0.0000 1.0000 0.0000
vn 1.0000 0.0000 0.0000
vn -0.0000 -0.0000 1.0000
vn -1.0000 -0.0000 -0.0000
vn 0.0000 0.0000 -1.0000
usemtl Material
s off
f 10//10 19//10 11//10
f 11//11 19//11 12//11
f 12//12 19//12 13//12
f 13//13 19//13 14//13
f 14//14 19//14 15//14
f 15//15 19//15 16//15
f 16//16 19//16 17//16
f 17//17 19//17 18//17
f 18//18 19//18 20//18
f 20//19 19//19 21//19
f 21//20 19//20 22//20
f 22//21 19//21 23//21
f 23//22 19//22 24//22
f 24//23 19//23 25//23
f 25//24 19//24 26//24
f 26//25 19//25 27//25
f 27//26 19//26 28//26
f 28//27 19//27 29//27
f 29//28 19//28 30//28
f 30//29 19//29 31//29
f 31//30 19//30 32//30
f 32//31 19//31 33//31
f 33//32 19//32 34//32
f 34//33 19//33 35//33
f 35//34 19//34 36//34
f 36//35 19//35 37//35
f 37//36 19//36 38//36
f 38//37 19//37 39//37
f 39//38 19//38 40//38
f 40//39 19//39 41//39
f 41//40 19//40 42//40
f 42//41 19//41 10//41
f 10//42 11//42 12//42 13//42 14//42 15//42 16//42 17//42 18//42 20//42 21//42 22//42 23//42 24//42 25//42 26//42 27//42 28//42 29//42 30//42 31//42 32//42 33//42 34//42 35//42 36//42 37//42 38//42 39//42 40//42 41//42 42//42
f 43//42 44//42 45//42 46//42
f 47//43 50//43 49//43 48//43
f 43//44 47//44 48//44 44//44
f 44//45 48//45 49//45 45//45
f 45//46 49//46 50//46 46//46
f 47//47 43//47 46//47 50//47
